# xmcd
#
# Track frame offsets: 
#        150
#        16514
#        34515
#        46576
#        60840
#        84844
#        100752
#        115766
#        139561
#        157897
#
# Disc length: 2413 seconds
#
# Revision: 0
# Processed by: cddbd v1.5.2PL0 Copyright (c) Steve Scherf et al.
# Submitted via: ExactAudioCopyFreeDBPlugin 1.0
#
DISCID=58096b0a
DTITLE=The Source - Take me Home
DYEAR=2009
DGENRE=Blues
TTITLE0=Church Bells
TTITLE1=Source
TTITLE2=Darkness
TTITLE3=JBG
TTITLE4=Bad Luck and Trouble
TTITLE5=Take me Home
TTITLE6=Blind Man
TTITLE7=Mountain
TTITLE8=Population Explosion
TTITLE9=Harp Song with Boogie
EXTD=
EXTT0=
EXTT1=
EXTT2=
EXTT3=
EXTT4=
EXTT5=
EXTT6=
EXTT7=
EXTT8=
EXTT9=
PLAYORDER=
